# xmcd
#
# Track frame offsets:
#	150
#	19920
#	37546
#	55356
#	74580
#	94944
#	114897
#	134667
#	152293
#	170103
#	189327
#	209691
#
# Disc length: 3061 seconds
#
# Revision: 1
# Processed by: cddbd v1.5.2PL0 Copyright (c) Steve Scherf et al.
# Submitted via: audiograbber 1.83.01
#
DISCID=a50bf30c
DTITLE=Various Artist - Today's Country
DYEAR=1900
DGENRE=Karaoke
TTITLE0=Alan Jackson - Where I Come From
TTITLE1=Trisha Yearwod - I Would've Loved You  Anyway
TTITLE2=Sara Evans - Born to Fly
TTITLE3=Lonestar - I'm Already There
TTITLE4=George Strait and Alan Jackson - Murder on Music Row
TTITLE5=Soggy Bottom Boys - I am a Man of Contant Sorrow
TTITLE6=Alan Jackson - Where I Come From (vocal)
TTITLE7=Trisha Yearwod - I Would've Loved You  Anyway (vocal)
TTITLE8=Sara Evans - Born to Fly (vocal)
TTITLE9=Lonestar - I'm Already There (vocal)
TTITLE10=George Strait and Alan Jackson - Murder on Music Row (vocal)
TTITLE11=Soggy Bottom Boys - I am a Man of Contant Sorrow (vocal)
EXTD=
EXTT0=
EXTT1=
EXTT2=
EXTT3=
EXTT4=
EXTT5=
EXTT6=
EXTT7=
EXTT8=
EXTT9=
EXTT10=
EXTT11=
PLAYORDER=
